<svg xmlns="http://www.w3.org/2000/svg" viewBox="0 0 760 420" fill="none">
  <defs>
    <linearGradient id="bg-alt" x1="28" y1="24" x2="728" y2="396" gradientUnits="userSpaceOnUse">
      <stop stop-color="#F6F3EC"/>
      <stop offset="1" stop-color="#EAF2EC"/>
    </linearGradient>
    <linearGradient id="panel-alt" x1="0" y1="0" x2="1" y2="1">
      <stop stop-color="#FFFFFF"/>
      <stop offset="1" stop-color="#F8FBF8"/>
    </linearGradient>
    <linearGradient id="core-alt" x1="314" y1="128" x2="450" y2="286" gradientUnits="userSpaceOnUse">
      <stop stop-color="#2F5A41"/>
      <stop offset="1" stop-color="#5D472E"/>
    </linearGradient>
  </defs>

  <rect x="20" y="20" width="720" height="380" rx="28" fill="url(#bg-alt)" stroke="#DDE5DD"/>
  <circle cx="112" cy="324" r="82" fill="#8B6F47" fill-opacity=".08"/>
  <circle cx="644" cy="98" r="70" fill="#FFFFFF" fill-opacity=".3"/>

  <g text-anchor="middle" font-family="Inter, Arial, sans-serif">
    <text x="380" y="70" fill="#2A4D38" font-size="20" font-weight="700">Validaci&#243;n en entorno real</text>
    <text x="380" y="94" fill="#5A5A5A" font-size="13">del problema de campo al conocimiento compartido</text>
  </g>

  <path d="M96 208H664" stroke="#C7D5CB" stroke-width="5" stroke-linecap="round"/>
  <circle cx="96" cy="208" r="6" fill="#3D6B4F"/>
  <circle cx="230" cy="208" r="6" fill="#527F65"/>
  <circle cx="380" cy="208" r="6" fill="#6D816E"/>
  <circle cx="530" cy="208" r="6" fill="#6D816E"/>
  <circle cx="664" cy="208" r="6" fill="#8B6F47"/>
  <path d="M155 201L169 208L155 215" fill="#C7D5CB"/>
  <path d="M292 201L306 208L292 215" fill="#C7D5CB"/>
  <path d="M444 201L458 208L444 215" fill="#C7D5CB"/>
  <path d="M589 201L603 208L589 215" fill="#C7D5CB"/>

  <g font-family="Inter, Arial, sans-serif" text-anchor="middle">
    <rect x="36" y="138" width="120" height="136" rx="22" fill="url(#panel-alt)" stroke="#D8E0D7"/>
    <circle cx="96" cy="174" r="20" fill="#EAF2EC" stroke="#BFD2C4"/>
    <path d="M96 162V182" stroke="#3D6B4F" stroke-width="3.5" stroke-linecap="round"/>
    <circle cx="96" cy="190" r="7" fill="#3D6B4F"/>
    <text x="96" y="224" fill="#2A4D38" font-size="17" font-weight="700">Finca real</text>
    <text x="96" y="246" fill="#5A5A5A" font-size="12.5">
      <tspan x="96">pregunta, l&#237;mites</tspan>
      <tspan x="96" dy="16">y necesidad</tspan>
    </text>
  </g>

  <g font-family="Inter, Arial, sans-serif" text-anchor="middle">
    <rect x="170" y="138" width="120" height="136" rx="22" fill="url(#panel-alt)" stroke="#D8E0D7"/>
    <path d="M202 174H258" stroke="#527F65" stroke-width="4" stroke-linecap="round"/>
    <path d="M202 190H258" stroke="#527F65" stroke-width="4" stroke-linecap="round"/>
    <path d="M202 206H240" stroke="#527F65" stroke-width="4" stroke-linecap="round"/>
    <text x="230" y="224" fill="#2A4D38" font-size="17" font-weight="700">Ensayo</text>
    <text x="230" y="246" fill="#5A5A5A" font-size="12.5">
      <tspan x="230">hip&#243;tesis y</tspan>
      <tspan x="230" dy="16">dise&#241;o de prueba</tspan>
    </text>
  </g>

  <g font-family="Inter, Arial, sans-serif" text-anchor="middle">
    <rect x="306" y="118" width="148" height="178" rx="28" fill="url(#core-alt)"/>
    <rect x="326" y="140" width="108" height="48" rx="16" fill="#FFFFFF" fill-opacity=".08" stroke="#D8E5DB" stroke-opacity=".45"/>
    <path d="M350 156H410" stroke="#D9E8DE" stroke-width="3.5" stroke-linecap="round"/>
    <path d="M350 170H396" stroke="#D9E8DE" stroke-width="3.5" stroke-linecap="round"/>
    <text x="380" y="214" fill="#FFFFFF" font-size="18" font-weight="700">Living Lab</text>
    <text x="380" y="238" fill="#F1F7F3" font-size="13" font-weight="600">
      <tspan x="380">medici&#243;n, contraste</tspan>
      <tspan x="380" dy="18">y criterio operativo</tspan>
    </text>
    <rect x="323" y="262" width="114" height="24" rx="12" fill="#FFFFFF" fill-opacity=".12" stroke="#E1ECE4" stroke-opacity=".55"/>
    <text x="380" y="278" fill="#FFFFFF" font-size="11.5" font-weight="700">lo &#250;til se consolida</text>
  </g>

  <g font-family="Inter, Arial, sans-serif" text-anchor="middle">
    <rect x="470" y="138" width="120" height="136" rx="22" fill="url(#panel-alt)" stroke="#D8E0D7"/>
    <rect x="503" y="166" width="54" height="40" rx="12" fill="#EEF5EF" stroke="#C6D6C8"/>
    <path d="M515 180H545" stroke="#678876" stroke-width="3"/>
    <path d="M515 192H539" stroke="#678876" stroke-width="3"/>
    <text x="530" y="224" fill="#2A4D38" font-size="17" font-weight="700">Herramienta</text>
    <text x="530" y="246" fill="#5A5A5A" font-size="12.5">
      <tspan x="530">lectura y</tspan>
      <tspan x="530" dy="16">decisi&#243;n</tspan>
    </text>
  </g>

  <g font-family="Inter, Arial, sans-serif" text-anchor="middle">
    <rect x="604" y="138" width="120" height="136" rx="22" fill="url(#panel-alt)" stroke="#D8E0D7"/>
    <path d="M636 178C650 164 678 164 692 178" stroke="#8B6F47" stroke-width="4" stroke-linecap="round"/>
    <path d="M636 192C650 178 678 178 692 192" stroke="#8B6F47" stroke-width="4" stroke-linecap="round"/>
    <text x="664" y="224" fill="#2A4D38" font-size="17" font-weight="700">Transferencia</text>
    <text x="664" y="244" fill="#5A5A5A" font-size="11.5">
      <tspan x="664">aprendizaje</tspan>
      <tspan x="664" dy="16">abierto y compartido</tspan>
    </text>
  </g>

  <g font-family="Inter, Arial, sans-serif" text-anchor="middle">
    <rect x="146" y="304" width="468" height="78" rx="22" fill="#FFFFFF" fill-opacity=".94" stroke="#D8E0D7"/>
    <text x="380" y="331" fill="#2A4D38" font-size="16" font-weight="700">No es solo infraestructura t&#233;cnica</text>
    <text x="380" y="352" fill="#5A5A5A" font-size="12.5">
      <tspan x="380">Es una forma de probar en campo, filtrar lo &#250;til</tspan>
      <tspan x="380" dy="16">y devolver conocimiento aplicable.</tspan>
    </text>
  </g>
</svg>
