<svg xmlns="http://www.w3.org/2000/svg" viewBox="0 0 760 420" fill="none">
  <defs>
    <linearGradient id="bg" x1="64" y1="42" x2="700" y2="376" gradientUnits="userSpaceOnUse">
      <stop stop-color="#F6F3ED"/>
      <stop offset="1" stop-color="#EAF2EC"/>
    </linearGradient>
    <linearGradient id="panel" x1="0" y1="0" x2="1" y2="1">
      <stop stop-color="#FFFFFF" stop-opacity=".98"/>
      <stop offset="1" stop-color="#F0F4EE"/>
    </linearGradient>
    <linearGradient id="core" x1="270" y1="88" x2="490" y2="332" gradientUnits="userSpaceOnUse">
      <stop stop-color="#3D6B4F"/>
      <stop offset="1" stop-color="#284A37"/>
    </linearGradient>
  </defs>

  <rect x="20" y="20" width="720" height="380" rx="28" fill="url(#bg)" stroke="#DDE5DD"/>
  <circle cx="622" cy="108" r="92" fill="#FFFFFF" fill-opacity=".32"/>
  <circle cx="136" cy="328" r="98" fill="#8B6F47" fill-opacity=".08"/>

  <rect x="50" y="70" width="170" height="78" rx="18" fill="url(#panel)" stroke="#D8E0D7"/>
  <g text-anchor="middle" font-family="Inter, Arial, sans-serif">
    <text x="135" y="101" fill="#2A4D38" font-size="18" font-weight="700">Suelo</text>
    <text x="135" y="124" fill="#5A5A5A" font-size="12.5">
      <tspan x="135">Lectura continua</tspan>
      <tspan x="135" dy="16">y estado h&#237;drico</tspan>
    </text>
  </g>

  <rect x="50" y="171" width="170" height="78" rx="18" fill="url(#panel)" stroke="#D8E0D7"/>
  <g text-anchor="middle" font-family="Inter, Arial, sans-serif">
    <text x="135" y="202" fill="#2A4D38" font-size="18" font-weight="700">Clima</text>
    <text x="135" y="225" fill="#5A5A5A" font-size="12.5">
      <tspan x="135">Contexto y</tspan>
      <tspan x="135" dy="16">proyecci&#243;n</tspan>
    </text>
  </g>

  <rect x="50" y="272" width="170" height="78" rx="18" fill="url(#panel)" stroke="#D8E0D7"/>
  <g text-anchor="middle" font-family="Inter, Arial, sans-serif">
    <text x="135" y="303" fill="#2A4D38" font-size="18" font-weight="700">Manejo</text>
    <text x="135" y="326" fill="#5A5A5A" font-size="12.5">
      <tspan x="135">Riego, cultivo</tspan>
      <tspan x="135" dy="16">y ritmo</tspan>
    </text>
  </g>

  <path d="M220 109H266" stroke="#7EA28D" stroke-width="3" stroke-linecap="round"/>
  <path d="M220 210H266" stroke="#7EA28D" stroke-width="3" stroke-linecap="round"/>
  <path d="M220 311H266" stroke="#7EA28D" stroke-width="3" stroke-linecap="round"/>
  <path d="M258 102L272 109L258 116" fill="#7EA28D"/>
  <path d="M258 203L272 210L258 217" fill="#7EA28D"/>
  <path d="M258 304L272 311L258 318" fill="#7EA28D"/>

  <rect x="272" y="88" width="216" height="244" rx="30" fill="url(#core)"/>
  <path d="M304 122C330 112 364 110 392 116" stroke="#D6E8DC" stroke-width="3" stroke-linecap="round" stroke-opacity=".3"/>
  <path d="M368 304C402 306 430 300 456 286" stroke="#D6E8DC" stroke-width="3" stroke-linecap="round" stroke-opacity=".26"/>
  <path d="M338 282C370 260 424 264 454 286" stroke="#BFE0CC" stroke-width="4" stroke-linecap="round"/>
  <g text-anchor="middle" font-family="Inter, Arial, sans-serif">
    <text x="380" y="130" fill="#FFFFFF" font-size="16.5" font-weight="800" stroke="#183225" stroke-opacity=".34" stroke-width="1" paint-order="stroke">
      Modelo operativo
    </text>
    <text x="380" y="168" fill="#F7FCF8" font-size="13.8" font-weight="700" stroke="#183225" stroke-opacity=".26" stroke-width=".85" paint-order="stroke">
      <tspan x="380">Balance h&#237;drico,</tspan>
      <tspan x="380" dy="20">reglas agron&#243;micas</tspan>
      <tspan x="380" dy="20">y contexto de finca</tspan>
    </text>
  </g>
  <rect x="310" y="252" width="140" height="38" rx="19" fill="#102519" fill-opacity=".72" stroke="#E6F1E9" stroke-opacity=".82"/>
  <text x="380" y="268" fill="#FFFFFF" font-family="Inter, Arial, sans-serif" font-size="12" font-weight="800" text-anchor="middle">
    <tspan x="380">FAO-56</tspan>
    <tspan x="380" dy="14">+ lectura propia</tspan>
  </text>

  <path d="M488 109H534" stroke="#7EA28D" stroke-width="3" stroke-linecap="round"/>
  <path d="M488 210H534" stroke="#7EA28D" stroke-width="3" stroke-linecap="round"/>
  <path d="M488 311H534" stroke="#7EA28D" stroke-width="3" stroke-linecap="round"/>
  <path d="M526 102L540 109L526 116" fill="#7EA28D"/>
  <path d="M526 203L540 210L526 217" fill="#7EA28D"/>
  <path d="M526 304L540 311L526 318" fill="#7EA28D"/>

  <rect x="540" y="70" width="170" height="78" rx="18" fill="url(#panel)" stroke="#D8E0D7"/>
  <g text-anchor="middle" font-family="Inter, Arial, sans-serif">
    <text x="625" y="101" fill="#2A4D38" font-size="18" font-weight="700">Lectura</text>
    <text x="625" y="124" fill="#5A5A5A" font-size="12.5">
      <tspan x="625">Qu&#233; est&#225; pasando</tspan>
      <tspan x="625" dy="16">hoy</tspan>
    </text>
  </g>

  <rect x="540" y="171" width="170" height="78" rx="18" fill="url(#panel)" stroke="#D8E0D7"/>
  <g text-anchor="middle" font-family="Inter, Arial, sans-serif">
    <text x="625" y="202" fill="#2A4D38" font-size="18" font-weight="700">Escenarios</text>
    <text x="625" y="225" fill="#5A5A5A" font-size="12.5">
      <tspan x="625">Qu&#233; puede pasar</tspan>
      <tspan x="625" dy="16">despu&#233;s</tspan>
    </text>
  </g>

  <rect x="540" y="272" width="170" height="78" rx="18" fill="url(#panel)" stroke="#D8E0D7"/>
  <g text-anchor="middle" font-family="Inter, Arial, sans-serif">
    <text x="625" y="303" fill="#2A4D38" font-size="17" font-weight="700">Recomendaci&#243;n</text>
    <text x="625" y="326" fill="#5A5A5A" font-size="12.5">
      <tspan x="625">Qu&#233; conviene</tspan>
      <tspan x="625" dy="16">hacer hoy</tspan>
    </text>
  </g>
</svg>
